<svg width="638" height="94" viewBox="0 0 638 94" fill="none" xmlns="http://www.w3.org/2000/svg">
<path fill-rule="evenodd" clip-rule="evenodd" d="M126.134 73.302H144.927C164.347 73.302 177.666 60.3629 177.666 44.3342C177.666 28.3055 164.32 15.3665 144.927 15.3665H126.134V73.302ZM138.881 25.1927H141.305C156.476 25.1927 163.748 31.3951 163.748 44.3342C163.748 55.7169 157.674 63.4757 141.305 63.4757H138.881V25.1927Z" fill="#006B52"/>
<path d="M221.353 25.1927V15.3665H186.191V73.302H221.353V63.4757H199.509V47.447H220.754V37.6208H199.509V25.1927H221.353Z" fill="#006B52"/>
<path fill-rule="evenodd" clip-rule="evenodd" d="M337.791 73.3022L363.257 17.4342C363.857 14.8556 366.907 13.8103 369.331 13.8103C371.755 13.8103 374.778 14.8556 375.405 17.4342L400.272 73.3022H386.327L380.88 60.8974H357.238L351.791 73.3022H337.845H337.791ZM360.833 51.5822L369.331 30.8843L377.203 51.5822H360.833Z" fill="#006B52"/>
<path d="M246.221 39.6882V15.3665H232.875V73.302H246.221V46.9127L268.037 73.302H285.033L257.742 41.7557L283.808 15.3665H267.438L246.221 39.6882Z" fill="#006B52"/>
<path d="M311.725 24.6817H305.052V41.7557H311.725C317.173 41.7557 321.422 38.1318 321.422 32.9515C321.422 28.3056 317.173 24.6817 311.725 24.6817ZM318.998 49.5145L337.791 73.302H321.422L305.052 50.0256V73.302H291.706V15.3665H314.149C325.671 15.3665 334.768 23.1253 334.768 32.4405C334.768 40.7103 328.095 47.9581 318.998 49.5145Z" fill="#006B52"/>
<path d="M21.2175 0.383294L78.8233 28.84C83.0723 30.9074 87.9204 35.5535 87.9204 41.7791C87.9204 48.4925 83.0723 52.6507 78.8233 55.2292L0 94V76.4149L70.3527 41.7558L32.7659 23.1254V49.5147L14.5717 58.3188V3.4961C14.5717 2.45075 15.7973 0.917583 16.9958 0.383294C18.2214 -0.127765 20.0191 -0.127765 21.2447 0.383294H21.2175Z" fill="#006B52"/>
<path d="M432.238 4.41382H423.952V89.2153H432.238V4.41382Z" fill="#006B52"/>
<path d="M468.671 23.3549V27.8133C473.87 23.4728 477.611 22.0811 484.021 22.0811C491.091 22.0811 497.363 24.6051 500.581 28.6154C502.975 31.8236 504.047 35.5979 504.047 42.0143V71.5486H491.091V44.6563C491.091 39.6081 490.678 37.32 489.358 35.5036C487.762 33.3333 484.681 32.0595 480.692 32.0595C471.889 32.0595 468.671 36.4 468.671 48.3127V71.5486H455.714V23.3549H468.671Z" fill="#006B52"/>
<path d="M558.099 53.5144C552.945 60.6925 549.509 62.8506 543.019 62.8506C534.811 62.8506 529.248 57.8307 528.593 49.9958H568.434V47.3685C568.434 41.1053 566.853 35.5224 563.935 31.5345C559.572 25.7405 551.091 22.0811 541.956 22.0811C525.812 22.0811 515.095 32.2148 515.095 47.4623C515.095 62.7099 526.085 72.7264 542.61 72.7264C549.618 72.7264 556.517 70.6855 561.399 66.9088C564.316 64.868 566.034 62.921 568.952 58.7221L558.099 53.491V53.5144ZM542.228 32.121C548.855 32.121 553.463 35.3112 555.208 41.0115H529.412C530.993 35.5458 536.038 32.121 542.255 32.121H542.228Z" fill="#006B52"/>
<path d="M608.242 22.0811C591.836 22.0811 578.619 32.9822 578.619 46.4255C578.619 60.6474 591.455 71.5486 608.105 71.5486C624.756 71.5486 638 60.7619 638 46.769C638 32.7761 625.028 22.104 608.242 22.104V22.0811ZM608.242 61.8612C598.186 61.8612 591.7 55.8609 591.7 46.6316C591.7 37.4022 598.431 31.7455 608.242 31.7455C618.052 31.7455 624.892 37.7458 624.892 46.8606C624.892 55.9755 618.27 61.8612 608.242 61.8612Z" fill="#006B52"/>
</svg>
