<svg width="209" height="36" viewBox="0 0 209 36" fill="none" xmlns="http://www.w3.org/2000/svg">
<path fill-rule="evenodd" clip-rule="evenodd" d="M41.2001 28.0731H47.3387C53.682 28.0731 58.0324 23.1177 58.0324 16.979C58.0324 10.8404 53.6731 5.88501 47.3387 5.88501H41.2001V28.0731ZM45.3637 9.64827H46.1555C51.1109 9.64827 53.4863 12.0236 53.4863 16.979C53.4863 21.3384 51.5023 24.3098 46.1555 24.3098H45.3637V9.64827Z" fill="#F9F9F9"/>
<path d="M72.3024 9.64827V5.88501H60.817V28.0731H72.3024V24.3098H65.1674V18.1712H72.1067V14.4079H65.1674V9.64827H72.3024Z" fill="#F9F9F9"/>
<path fill-rule="evenodd" clip-rule="evenodd" d="M110.335 28.0732L118.654 6.67693C118.849 5.68941 119.846 5.28906 120.638 5.28906C121.429 5.28906 122.417 5.68941 122.622 6.67693L130.744 28.0732H126.189L124.41 23.3224H116.687L114.908 28.0732H110.353H110.335ZM117.862 19.7549L120.638 11.8281L123.209 19.7549H117.862Z" fill="#F9F9F9"/>
<path d="M80.4251 15.1997V5.88501H76.0657V28.0731H80.4251V17.9666L87.5512 28.0731H93.1027L84.1883 15.9915L92.7023 5.88501H87.3555L80.4251 15.1997Z" fill="#F9F9F9"/>
<path d="M101.821 9.45255H99.6416V15.9915H101.821C103.601 15.9915 104.988 14.6037 104.988 12.6197C104.988 10.8404 103.601 9.45255 101.821 9.45255ZM104.197 18.963L110.335 28.0731H104.988L99.6416 19.1587V28.0731H95.2823V5.88501H102.613C106.376 5.88501 109.348 8.85647 109.348 12.424C109.348 15.5912 107.168 18.3669 104.197 18.963Z" fill="#F9F9F9"/>
<path d="M6.93043 0.146793L25.7467 11.0451C27.1346 11.8369 28.7181 13.6162 28.7181 16.0005C28.7181 18.5716 27.1346 20.1641 25.7467 21.1516L0 36V29.2653L22.9799 15.9916L10.7026 8.85655V18.9631L4.75967 22.3349V1.33893C4.75967 0.938586 5.16001 0.351415 5.55146 0.146793C5.95181 -0.0489312 6.53898 -0.0489312 6.93933 0.146793H6.93043Z" fill="#F9F9F9"/>
<path d="M141.185 1.69043H138.479V34.1676H141.185V1.69043Z" fill="#F9F9F9"/>
<path d="M153.086 8.94439V10.6519C154.784 8.98956 156.006 8.45654 158.1 8.45654C160.409 8.45654 162.458 9.42321 163.509 10.959C164.291 12.1877 164.641 13.6332 164.641 16.0906V27.4015H160.409V17.1024C160.409 15.169 160.274 14.2927 159.843 13.5971C159.322 12.7659 158.315 12.2781 157.012 12.2781C154.137 12.2781 153.086 13.9404 153.086 18.5027V27.4015H148.854V8.94439H153.086Z" fill="#F9F9F9"/>
<path d="M182.296 20.4949C180.613 23.2439 179.491 24.0704 177.371 24.0704C174.69 24.0704 172.872 22.1479 172.659 19.1473H185.672V18.1411C185.672 15.7424 185.156 13.6043 184.202 12.077C182.777 9.85802 180.007 8.45654 177.023 8.45654C171.75 8.45654 168.25 12.3375 168.25 18.177C168.25 24.0165 171.839 27.8526 177.237 27.8526C179.526 27.8526 181.78 27.071 183.374 25.6246C184.327 24.843 184.888 24.0974 185.841 22.4893L182.296 20.4859V20.4949ZM177.112 12.3016C179.277 12.3016 180.782 13.5234 181.352 15.7065H172.926C173.443 13.6133 175.09 12.3016 177.121 12.3016H177.112Z" fill="#F9F9F9"/>
<path d="M198.675 8.45654C193.316 8.45654 188.999 12.6315 188.999 17.7799C188.999 23.2266 193.192 27.4015 198.63 27.4015C204.069 27.4015 208.395 23.2705 208.395 17.9115C208.395 12.5525 204.158 8.46532 198.675 8.46532V8.45654ZM198.675 23.6915C195.39 23.6915 193.272 21.3935 193.272 17.8589C193.272 14.3242 195.47 12.1578 198.675 12.1578C201.879 12.1578 204.113 14.4558 204.113 17.9466C204.113 21.4374 201.95 23.6915 198.675 23.6915Z" fill="#F9F9F9"/>
</svg>
