<svg width="24" height="25" viewBox="0 0 24 25" fill="none" xmlns="http://www.w3.org/2000/svg">
<path d="M23 10.1667H14.5C14.2 10.1667 14 9.96528 14 9.6632V1.10417C14 0.500007 13.6 0.097229 13 0.097229H11C10.4 0.097229 10 0.500007 10 1.10417V9.6632C10 9.96528 9.8 10.1667 9.5 10.1667H1C0.4 10.1667 0 10.5695 0 11.1736V13.1875C0 13.7917 0.4 14.1945 1 14.1945H9.5C9.8 14.1945 10 14.3958 10 14.6979V23.257C10 23.8611 10.4 24.2639 11 24.2639H13C13.6 24.2639 14 23.8611 14 23.257V14.6979C14 14.3958 14.2 14.1945 14.5 14.1945H23C23.6 14.1945 24 13.7917 24 13.1875V11.1736C24 10.5695 23.6 10.1667 23 10.1667Z" fill="#838383"/>
</svg>
